<?xml version="1.0" standalone="no"?>
<!DOCTYPE svg PUBLIC "-//W3C//DTD SVG 20010904//EN"
 "http://www.w3.org/TR/2001/REC-SVG-20010904/DTD/svg10.dtd">
<svg version="1.0" xmlns="http://www.w3.org/2000/svg"
 width="2048.000000pt" height="1024.000000pt" viewBox="0 0 2048.000000 1024.000000"
 preserveAspectRatio="xMidYMid meet">

<g transform="translate(0.000000,1024.000000) scale(0.100000,-0.100000)"
fill="#000000" stroke="none">
<path d="M0 5120 l0 -5120 10240 0 10240 0 0 5120 0 5120 -10240 0 -10240 0 0
-5120z m9508 4436 c-22 -23 -48 -56 -48 -61 0 -2 -10 -15 -22 -28 -13 -13 -39
-42 -58 -66 -19 -23 -42 -50 -51 -59 -9 -9 -37 -44 -64 -77 -41 -52 -129 -156
-160 -189 -5 -6 -23 -29 -39 -51 -17 -22 -38 -47 -48 -56 -10 -9 -18 -20 -18
-25 0 -5 -9 -16 -20 -24 -11 -8 -20 -20 -20 -27 0 -7 -7 -13 -15 -13 -8 0 -17
-11 -21 -25 -3 -14 -12 -25 -19 -25 -8 0 -17 -9 -20 -20 -3 -11 -10 -20 -15
-20 -4 0 -21 -17 -37 -38 -38 -52 -100 -126 -144 -173 -20 -21 -34 -40 -32
-43 2 -2 -7 -13 -21 -24 -15 -11 -26 -23 -26 -26 0 -6 -13 -23 -58 -74 -13
-15 -40 -47 -60 -72 -20 -25 -45 -55 -56 -67 -12 -12 -26 -28 -31 -35 -59 -75
-92 -114 -102 -121 -7 -4 -13 -12 -13 -17 0 -6 -13 -22 -28 -37 -15 -16 -48
-53 -72 -83 -25 -30 -48 -56 -52 -58 -5 -2 -8 -8 -8 -14 0 -6 -8 -18 -18 -27
-10 -9 -42 -45 -71 -81 -76 -93 -133 -160 -156 -184 -11 -12 -28 -33 -38 -48
-16 -25 -67 -85 -123 -144 -12 -13 -20 -25 -17 -28 3 -2 -4 -11 -16 -18 -12
-7 -21 -16 -21 -20 0 -5 -16 -25 -35 -45 -19 -20 -35 -40 -35 -43 0 -4 -19
-27 -42 -52 -24 -25 -50 -54 -58 -64 -9 -10 -41 -50 -71 -89 -31 -38 -67 -82
-80 -96 -31 -35 -68 -78 -110 -130 -19 -23 -43 -51 -54 -63 -11 -12 -38 -44
-59 -71 -22 -28 -47 -57 -55 -66 -9 -9 -29 -33 -46 -54 -38 -49 -91 -113 -116
-140 -27 -29 -57 -65 -82 -99 -32 -42 -234 -245 -291 -291 -27 -22 -58 -48
-69 -57 -11 -10 -24 -18 -28 -18 -4 0 -14 -6 -21 -14 -8 -7 -30 -21 -48 -31
-19 -10 -37 -21 -40 -24 -3 -3 -32 -17 -65 -29 -33 -13 -82 -33 -109 -45 -42
-19 -67 -22 -176 -22 -123 1 -127 1 -195 35 -39 19 -72 37 -75 40 -9 10 -65
33 -75 31 -5 -2 -7 0 -3 4 4 4 -12 26 -35 49 -56 56 -98 106 -119 142 -43 73
-105 214 -112 254 -6 29 -10 46 -30 118 -8 30 -17 82 -21 117 -3 35 -8 74 -11
87 -5 28 -5 375 0 438 4 40 28 212 41 295 8 45 24 123 41 190 8 33 17 78 19
100 3 22 14 69 25 105 10 36 22 81 25 100 20 111 68 166 59 68 -8 -86 -5 -171
11 -363 8 -101 11 -119 23 -142 6 -10 13 -39 17 -63 4 -24 11 -52 16 -62 6
-10 7 -23 4 -28 -3 -5 -1 -11 5 -15 5 -3 14 -24 20 -45 6 -22 15 -40 20 -40 6
0 10 -9 10 -19 0 -11 11 -33 25 -49 14 -17 25 -35 25 -40 0 -9 109 -123 150
-156 50 -41 191 -79 264 -72 77 8 187 32 195 43 3 5 21 15 39 22 17 8 32 17
32 22 0 5 8 9 18 9 11 0 29 9 42 20 13 11 26 20 30 20 4 0 20 11 36 25 16 14
35 25 42 25 7 0 10 5 7 10 -3 6 -2 10 3 10 5 0 29 19 55 43 25 23 56 49 68 57
12 8 29 23 38 33 9 11 34 31 56 47 22 15 57 44 79 64 21 20 43 36 48 36 5 0 6
5 3 10 -3 6 1 10 9 10 8 0 19 6 23 13 4 6 31 30 58 51 28 22 55 44 60 50 6 6
35 31 64 56 30 25 64 54 76 65 36 34 85 75 90 75 4 0 22 16 86 75 9 8 21 15
27 15 6 0 14 9 17 20 3 11 11 20 17 20 6 0 18 7 27 15 94 88 151 135 164 135
5 0 6 7 3 16 -3 8 -2 12 4 9 9 -5 42 19 97 73 13 12 26 22 28 22 2 0 15 10 28
23 14 12 35 31 49 42 75 62 133 112 147 128 8 9 19 17 23 17 4 0 25 17 46 38
22 20 49 44 62 52 12 8 40 32 62 53 22 20 43 37 47 37 4 0 18 13 31 30 14 16
31 29 38 30 6 0 12 4 12 9 0 4 18 21 40 36 22 15 37 32 33 38 -3 6 -1 7 5 3 7
-4 12 -2 12 3 0 6 5 11 10 11 15 0 49 37 42 46 -4 4 -2 5 4 1 5 -3 26 9 45 26
19 18 59 52 89 77 30 25 57 48 58 53 2 4 10 7 18 7 9 0 12 5 9 10 -3 6 -2 10
2 10 11 0 42 24 98 75 24 22 58 51 75 65 17 14 45 37 61 53 16 15 32 27 35 27
6 0 29 19 88 75 18 17 57 50 87 75 30 24 56 48 57 52 2 5 8 8 12 8 5 0 19 10
32 23 13 12 45 40 72 62 27 22 63 54 80 70 18 17 47 41 65 55 18 14 40 32 49
41 24 23 46 28 50 12 2 -7 -2 -19 -10 -27z m10152 -4038 c0 -776 4 -1186 10
-1210 13 -44 51 -93 90 -113 16 -8 58 -20 94 -27 36 -7 66 -17 66 -23 0 -5 -7
-48 -15 -95 -8 -47 -15 -86 -15 -87 0 -9 -116 0 -169 12 -168 40 -264 146
-291 320 -7 47 -10 441 -8 1214 l3 1145 85 17 c47 9 100 17 118 18 l32 1 0
-1172z m-2608 967 c92 -68 92 -232 0 -300 -19 -13 -47 -21 -92 -23 -55 -3 -70
0 -99 20 -62 42 -76 71 -76 153 0 82 14 111 76 153 29 20 44 23 99 20 45 -2
73 -10 92 -23z m-1342 -410 l0 -285 355 0 355 0 0 -95 0 -95 -355 0 -356 0 3
-577 c3 -565 4 -580 25 -643 31 -92 72 -143 141 -177 55 -27 62 -28 212 -28
l155 0 90 38 c50 21 95 40 100 43 8 3 65 -171 65 -199 0 -11 -151 -68 -232
-87 -115 -28 -314 -28 -422 0 -184 47 -292 156 -340 344 -33 126 -37 262 -34
1140 l3 870 85 17 c47 9 100 17 118 18 l32 1 0 -285z m-6495 -264 c131 -28
199 -54 203 -77 1 -10 -8 -57 -21 -104 -28 -99 -21 -97 -152 -49 -89 34 -91
34 -270 34 -167 0 -184 -2 -239 -24 -87 -35 -150 -101 -167 -174 -18 -85 -1
-152 58 -217 56 -63 117 -97 368 -205 110 -47 231 -104 268 -126 143 -85 231
-209 246 -350 25 -233 -59 -396 -252 -488 -130 -62 -187 -73 -400 -78 -246 -7
-370 12 -522 77 l-43 19 30 103 c17 57 31 104 32 105 1 1 40 -13 86 -32 127
-51 240 -68 417 -63 169 6 253 26 324 81 64 49 84 95 84 197 0 101 -21 149
-87 203 -54 44 -105 69 -346 173 -227 97 -318 148 -388 218 -97 98 -139 235
-116 382 32 205 180 347 417 399 96 21 361 19 470 -4z m3649 -1 c207 -53 371
-199 449 -399 51 -132 89 -409 72 -524 l-7 -47 -629 0 -629 0 0 -44 c0 -124
53 -298 121 -401 107 -160 260 -225 529 -225 156 -1 253 15 366 59 43 17 79
29 80 28 1 -1 11 -47 22 -102 25 -118 29 -111 -91 -149 -136 -43 -226 -56
-395 -56 -229 0 -382 37 -516 122 -249 160 -366 420 -366 814 0 309 79 536
248 715 102 109 208 173 345 209 102 27 297 27 401 0z m1992 5 c108 -19 214
-52 221 -70 2 -8 -8 -57 -23 -110 -22 -76 -31 -95 -44 -91 -8 3 -49 17 -90 32
-66 23 -95 27 -230 31 -240 7 -350 -27 -471 -147 -122 -121 -177 -276 -186
-521 -9 -239 25 -398 114 -532 108 -162 274 -237 524 -238 140 0 178 7 303 52
48 17 89 30 91 28 2 -2 15 -48 28 -102 l25 -99 -43 -19 c-23 -10 -87 -31 -141
-46 -92 -26 -112 -28 -294 -28 -227 0 -281 10 -426 81 -199 97 -334 276 -401
533 -34 129 -43 378 -20 527 35 218 112 379 247 514 110 110 238 179 391 209
75 15 329 12 425 -4z m3549 0 c222 -46 376 -200 431 -430 15 -61 18 -153 21
-716 l4 -647 -113 -20 c-230 -42 -282 -47 -518 -47 -197 0 -245 3 -300 18
-201 57 -339 186 -386 362 -21 79 -27 193 -15 275 30 197 156 338 368 411 173
59 496 66 697 14 l29 -8 -6 139 c-8 213 -51 317 -160 389 -88 57 -145 68 -336
63 -160 -5 -239 -19 -352 -63 -13 -5 -19 11 -33 96 -19 116 -22 110 60 134
154 45 464 60 609 30z m-7587 -11 c350 -72 591 -332 657 -708 8 -49 15 -146
15 -216 0 -403 -152 -701 -430 -845 -135 -69 -230 -88 -420 -82 -178 5 -229
16 -367 82 l-93 44 0 -365 0 -364 -120 0 -120 0 0 1188 0 1189 73 21 c197 56
297 69 540 71 136 1 209 -3 265 -15z m6252 -914 l0 -900 -120 0 -120 0 0 900
0 900 120 0 120 0 0 -900z m-11658 798 c189 -71 323 -205 396 -396 24 -61 26
-80 26 -212 0 -132 -2 -151 -26 -212 -37 -98 -85 -173 -154 -242 -69 -69 -144
-117 -242 -154 -61 -24 -80 -26 -212 -26 -132 0 -151 2 -212 26 -191 73 -325
207 -396 396 -34 90 -42 266 -18 362 59 233 233 410 466 475 88 24 286 15 372
-17z m-1042 -1148 c44 -13 123 -52 132 -65 4 -5 11 -10 15 -10 24 -1 100 -66
158 -136 30 -36 75 -107 75 -119 0 -5 4 -10 9 -10 5 0 16 -19 24 -42 9 -24 25
-68 37 -98 22 -58 28 -77 37 -125 3 -16 12 -50 20 -73 8 -24 12 -50 9 -57 -2
-7 -2 -16 1 -19 17 -17 25 -479 10 -596 -4 -30 -10 -75 -12 -99 -3 -24 -8 -47
-11 -52 -2 -4 -7 -36 -10 -71 -3 -35 -12 -85 -20 -113 -7 -27 -16 -68 -20 -90
-3 -22 -10 -58 -15 -80 -6 -22 -19 -76 -29 -120 -10 -44 -23 -100 -29 -125
-42 -176 -56 -161 -57 58 0 97 -4 195 -7 217 -4 22 -11 69 -16 105 -5 36 -14
80 -20 98 -5 18 -10 33 -9 35 3 17 -49 166 -62 177 -4 3 -12 21 -20 40 -7 19
-22 44 -32 56 -10 11 -18 24 -18 28 0 5 -24 33 -52 63 -79 81 -153 126 -248
151 -67 18 -272 -10 -308 -41 -10 -8 -27 -18 -39 -21 -13 -4 -23 -11 -23 -16
0 -5 -13 -11 -28 -15 -15 -3 -34 -15 -42 -25 -8 -11 -21 -20 -30 -20 -9 0 -22
-9 -30 -20 -8 -11 -20 -20 -26 -20 -6 0 -31 -18 -55 -40 -24 -23 -52 -49 -62
-58 -11 -9 -23 -16 -27 -15 -5 2 -12 -6 -15 -17 -4 -11 -13 -20 -21 -20 -8 0
-14 -4 -14 -8 0 -5 -21 -24 -47 -43 -27 -18 -67 -52 -90 -74 -23 -22 -51 -47
-63 -55 -13 -8 -42 -33 -66 -55 -23 -22 -71 -62 -106 -90 -95 -75 -97 -78 -92
-87 3 -5 2 -7 -3 -6 -11 3 -66 -40 -122 -94 -21 -21 -43 -38 -48 -38 -5 0 -15
-8 -24 -17 -8 -10 -29 -29 -46 -43 -17 -13 -29 -29 -26 -34 3 -5 1 -6 -6 -2
-6 4 -23 -5 -39 -21 -16 -15 -48 -44 -72 -63 -24 -19 -57 -47 -72 -63 -16 -15
-31 -27 -34 -27 -3 0 -43 -33 -88 -72 -45 -40 -106 -93 -135 -118 -30 -25 -64
-55 -77 -67 -13 -13 -27 -23 -32 -23 -4 0 -19 -13 -32 -30 -14 -16 -31 -29
-37 -30 -7 0 -13 -5 -13 -10 0 -6 -8 -14 -17 -17 -10 -4 -34 -24 -54 -45 -20
-21 -39 -38 -42 -38 -4 0 -25 -17 -46 -37 -22 -21 -54 -49 -72 -63 -18 -14
-62 -50 -98 -80 -36 -31 -77 -64 -90 -75 -13 -11 -31 -28 -40 -37 -8 -10 -19
-18 -23 -18 -4 0 -25 -17 -47 -37 -54 -51 -121 -110 -150 -131 -13 -9 -36 -29
-51 -44 -15 -16 -30 -28 -34 -28 -4 0 -22 -16 -42 -35 -19 -19 -38 -35 -42
-35 -4 0 -15 -8 -24 -17 -29 -30 -145 -131 -198 -171 -19 -15 -39 -33 -43 -39
-4 -7 -15 -13 -23 -13 -8 0 -12 -5 -9 -10 3 -6 0 -13 -9 -16 -15 -6 -57 -41
-134 -112 -26 -23 -50 -42 -54 -42 -4 0 -20 -13 -35 -28 -38 -39 -63 -47 -63
-22 0 11 5 20 10 20 6 0 10 6 10 13 0 7 9 19 20 27 11 8 20 18 20 22 0 4 10
18 23 30 12 13 38 43 57 66 19 24 44 53 55 66 11 12 36 42 55 66 36 46 84 102
110 131 39 42 106 123 114 138 5 9 18 23 28 32 10 9 18 19 18 23 0 4 12 19 27
35 51 51 98 112 95 122 -1 6 2 8 8 4 5 -3 10 -3 10 2 0 7 20 32 88 109 15 16
43 50 62 74 19 24 45 54 58 66 12 13 22 25 22 27 0 3 13 19 30 37 16 18 27 37
23 43 -3 6 -1 7 5 3 7 -4 12 -4 12 1 0 4 13 22 28 39 88 100 117 137 114 146
-1 5 2 7 7 4 9 -6 26 22 22 37 -1 5 3 6 9 2 5 -3 10 -3 10 2 0 4 17 27 38 50
73 79 222 259 222 267 0 2 17 21 38 43 20 21 44 48 52 58 31 41 187 228 215
259 6 6 28 34 50 61 22 28 49 58 60 67 11 10 17 17 13 18 -6 0 31 45 85 102 9
10 17 22 17 26 0 4 9 14 20 22 11 8 20 18 20 22 0 4 12 20 28 36 15 15 42 47
60 70 19 22 41 50 50 61 10 11 31 36 47 57 17 20 45 52 63 70 17 18 32 36 32
39 0 6 21 32 68 84 18 20 46 55 63 78 16 23 35 46 42 50 7 4 23 22 36 38 12
17 37 46 55 65 18 19 36 42 42 51 9 16 71 92 107 130 9 11 15 19 12 19 -3 0
11 17 32 38 21 21 63 65 95 98 83 87 165 164 175 164 4 0 14 9 21 20 7 12 16
19 20 16 4 -2 13 2 20 10 7 8 9 14 5 14 -4 0 8 8 27 17 19 10 37 20 40 23 13
14 90 58 130 74 25 10 65 27 90 38 25 11 68 24 95 28 64 10 209 4 255 -10z"/>
<path d="M12514 5602 c-206 -73 -349 -263 -382 -509 l-9 -63 510 0 510 0 -6
78 c-18 227 -119 402 -274 475 -62 29 -78 32 -183 35 -91 2 -126 -1 -166 -16z"/>
<path d="M18076 4858 c-133 -25 -258 -119 -291 -219 -26 -78 -17 -227 17 -294
48 -91 137 -152 259 -175 66 -13 358 -13 454 0 39 5 78 9 88 10 16 0 17 22 17
320 l0 320 -27 11 c-97 37 -387 52 -517 27z"/>
<path d="M10465 5599 c-71 -4 -164 -14 -205 -23 -41 -9 -76 -16 -77 -16 -2 0
-3 -279 -3 -619 l0 -619 48 -30 c127 -82 266 -122 426 -122 126 0 197 15 284
59 198 101 302 329 302 660 0 236 -63 416 -189 540 -144 142 -291 184 -586
170z"/>
</g>
</svg>
